<?xml version="1.0" encoding="UTF-8"?><svg id="Layer_2" xmlns="http://www.w3.org/2000/svg" viewBox="0 0 204.28 61.16"><defs><style>.cls-1{fill:#262626;}.cls-2{fill:#070808;}</style></defs><g id="Layer_1-2"><g><path fill="#E3E53B" d="M198.97,22.04c-2.93,0-5.31-2.38-5.31-5.31s2.38-5.31,5.31-5.31,5.31,2.38,5.31,5.31-2.38,5.31-5.31,5.31Zm0-7.2c-1.04,0-1.89,.85-1.89,1.89s.85,1.89,1.89,1.89,1.89-.85,1.89-1.89-.85-1.89-1.89-1.89Z"/><g><g><path class="cls-2" d="M1.25,5.79c.02,.45,.13,.81,.3,1.09,.34,.52,.94,.78,1.8,.78,.39,0,.74-.06,1.05-.17,.61-.22,.92-.62,.92-1.19,0-.43-.13-.73-.39-.92-.26-.18-.67-.33-1.24-.47l-1.03-.24c-.67-.16-1.15-.33-1.43-.52-.48-.33-.73-.82-.73-1.47,0-.71,.24-1.29,.71-1.74,.48-.45,1.15-.68,2.02-.68,.8,0,1.49,.2,2.05,.6,.56,.4,.84,1.04,.84,1.91h-1c-.05-.42-.16-.74-.33-.97-.31-.41-.84-.62-1.59-.62-.6,0-1.04,.13-1.3,.4-.26,.26-.4,.57-.4,.92,0,.39,.16,.67,.47,.85,.2,.11,.67,.26,1.39,.43l1.07,.25c.52,.12,.91,.29,1.19,.5,.48,.37,.73,.9,.73,1.6,0,.87-.31,1.5-.93,1.87-.62,.37-1.34,.56-2.16,.56-.95,0-1.7-.25-2.24-.75-.54-.5-.8-1.17-.79-2.02H1.25Z"/><path class="cls-1" d="M3.28,8.81c-1.01,0-1.82-.27-2.41-.82C.28,7.45-.01,6.71,0,5.79v-.24H1.48v.23c.03,.4,.12,.73,.28,.97,.29,.45,.82,.67,1.6,.67,.35,0,.68-.05,.97-.16,.52-.19,.76-.49,.76-.96,0-.35-.09-.58-.28-.72-.23-.16-.62-.3-1.15-.43l-1.03-.24c-.71-.17-1.21-.35-1.51-.56-.55-.38-.84-.94-.84-1.68,0-.77,.27-1.42,.79-1.92C1.58,.27,2.31,.02,3.25,.02c.85,0,1.59,.22,2.19,.64,.63,.44,.95,1.16,.95,2.11v.25h-1.47l-.03-.22c-.05-.38-.14-.66-.28-.85-.26-.34-.73-.52-1.39-.52-.53,0-.91,.11-1.13,.32-.22,.22-.32,.46-.32,.75s.11,.5,.34,.63c.12,.07,.46,.2,1.32,.4l1.07,.25c.55,.13,.98,.31,1.29,.54,.55,.42,.82,1.02,.82,1.8,0,.96-.35,1.66-1.05,2.08-.65,.4-1.42,.6-2.28,.6ZM.5,6.04c.04,.67,.27,1.19,.71,1.59,.49,.46,1.19,.69,2.08,.69,.77,0,1.45-.18,2.03-.53,.54-.33,.81-.87,.81-1.66,0-.62-.21-1.08-.63-1.41-.25-.19-.62-.34-1.1-.46l-1.07-.25c-.75-.18-1.22-.33-1.45-.45-.39-.22-.59-.59-.59-1.06,0-.42,.16-.78,.47-1.09,.31-.31,.81-.47,1.47-.47,.82,0,1.42,.24,1.78,.71,.17,.22,.28,.51,.34,.87h.54c-.05-.67-.29-1.15-.73-1.46-.52-.37-1.16-.55-1.9-.55-.8,0-1.43,.21-1.85,.61-.43,.41-.64,.92-.64,1.56,0,.57,.2,.99,.62,1.27,.25,.17,.71,.33,1.35,.48l1.03,.24c.6,.14,1.03,.31,1.32,.5,.33,.23,.5,.61,.5,1.12,0,.47-.19,1.1-1.08,1.42-.34,.12-.72,.19-1.14,.19-.94,0-1.62-.3-2.01-.89-.17-.26-.28-.59-.32-.98H.5Z"/></g><g><path class="cls-2" d="M19.08,.46v.94h-2.65v6.93h-1.08V1.4h-2.65V.46h6.38Z"/><path class="cls-1" d="M16.68,8.58h-1.57V1.64h-2.65V.21h6.87V1.64h-2.65v6.93Zm-1.08-.49h.59V1.15h2.65v-.45h-5.89v.45h2.65v6.93Z"/></g><g><path class="cls-2" d="M26.7,.46V5.33c0,.57,.11,1.05,.32,1.43,.32,.57,.86,.86,1.62,.86,.91,0,1.53-.31,1.86-.93,.18-.34,.26-.79,.26-1.36V.46h1.08V4.88c0,.97-.13,1.71-.39,2.23-.48,.95-1.39,1.43-2.72,1.43s-2.24-.47-2.72-1.43c-.26-.52-.39-1.27-.39-2.23V.46h1.08Z"/><path class="cls-1" d="M28.73,8.79c-1.43,0-2.42-.53-2.93-1.56-.28-.56-.42-1.33-.42-2.35V.21h1.57V5.33c0,.53,.1,.96,.29,1.3,.28,.49,.74,.73,1.41,.73,.82,0,1.36-.26,1.64-.8,.16-.3,.24-.72,.24-1.24V.21h1.57V4.88c0,1-.14,1.79-.42,2.34-.52,1.04-1.51,1.56-2.94,1.56ZM25.87,.71V4.88c0,.93,.12,1.64,.37,2.12,.44,.87,1.25,1.29,2.5,1.29s2.06-.42,2.5-1.29c.24-.48,.37-1.2,.37-2.12V.71h-.59V5.33c0,.61-.1,1.1-.29,1.47-.37,.7-1.07,1.06-2.08,1.06-.85,0-1.47-.33-1.83-.98-.24-.41-.36-.93-.36-1.55V.71h-.59Z"/></g><g><path class="cls-2" d="M39.01,.46h3.15c1.07,0,1.9,.38,2.49,1.15,.53,.69,.79,1.58,.79,2.66,0,.84-.16,1.59-.47,2.27-.55,1.19-1.49,1.79-2.82,1.79h-3.14V.46Zm2.94,6.96c.35,0,.64-.04,.87-.11,.41-.14,.74-.41,1-.8,.21-.32,.35-.73,.45-1.22,.05-.3,.08-.57,.08-.83,0-.98-.19-1.73-.57-2.27-.38-.54-.99-.81-1.83-.81h-1.85V7.42h1.86Z"/><path class="cls-1" d="M42.15,8.58h-3.38V.21h3.39c1.14,0,2.05,.42,2.68,1.25,.56,.73,.84,1.68,.84,2.81,0,.87-.16,1.66-.49,2.37-.59,1.28-1.61,1.93-3.04,1.93Zm-2.89-.49h2.89c1.24,0,2.09-.54,2.6-1.65,.29-.64,.44-1.37,.44-2.16,0-1.02-.25-1.87-.74-2.52-.54-.71-1.29-1.06-2.29-1.06h-2.9v7.38Zm2.69-.42h-2.11V1.13h2.1c.92,0,1.61,.31,2.03,.91,.41,.58,.61,1.39,.61,2.41,0,.27-.03,.56-.08,.87-.1,.53-.26,.97-.48,1.31-.29,.44-.67,.75-1.12,.9-.26,.08-.57,.13-.95,.13Zm-1.61-.49h1.61c.32,0,.59-.03,.79-.1,.35-.12,.64-.35,.87-.71,.19-.29,.33-.67,.41-1.13,.05-.28,.07-.54,.07-.78,0-.92-.18-1.64-.52-2.13-.33-.47-.87-.7-1.63-.7h-1.6V7.18Z"/></g><g><path class="cls-2" d="M52.62,.46h1.08v7.87h-1.08V.46Z"/><path class="cls-1" d="M53.94,8.58h-1.57V.21h1.57V8.58Zm-1.08-.49h.59V.71h-.59v7.38Z"/></g><g><path class="cls-2" d="M67.4,1.59c.52,.7,.78,1.59,.78,2.67,0,1.18-.3,2.15-.9,2.93-.7,.91-1.7,1.37-3,1.37-1.21,0-2.16-.4-2.86-1.2-.62-.77-.93-1.75-.93-2.93,0-1.06,.26-1.98,.79-2.73,.68-.97,1.68-1.46,3.01-1.46s2.42,.45,3.09,1.34Zm-.94,5.02c.42-.67,.63-1.45,.63-2.33,0-.93-.24-1.67-.73-2.24-.48-.56-1.15-.85-1.99-.85s-1.48,.28-1.99,.84-.77,1.38-.77,2.47c0,.87,.22,1.61,.66,2.21,.44,.6,1.16,.9,2.15,.9s1.62-.34,2.04-1.01Z"/><path class="cls-1" d="M64.29,8.81c-1.28,0-2.3-.43-3.04-1.29-.66-.82-.99-1.86-.99-3.09,0-1.11,.28-2.08,.84-2.87,.72-1.04,1.81-1.56,3.21-1.56s2.57,.48,3.28,1.44c.55,.74,.83,1.69,.83,2.82,0,1.22-.32,2.26-.95,3.08-.75,.97-1.82,1.47-3.19,1.47Zm.02-8.32c-1.26,0-2.17,.44-2.81,1.35-.5,.71-.75,1.58-.75,2.59,0,1.12,.29,2.05,.87,2.77,.64,.74,1.52,1.11,2.66,1.11,1.23,0,2.14-.42,2.8-1.28,.56-.73,.84-1.67,.84-2.78,0-1.03-.25-1.88-.73-2.53h0c-.62-.84-1.57-1.24-2.89-1.24Zm.11,7.37c-1.07,0-1.86-.34-2.34-1-.47-.64-.71-1.43-.71-2.35,0-1.15,.28-2.04,.84-2.64,.56-.61,1.29-.92,2.17-.92s1.64,.31,2.17,.93c.52,.61,.79,1.41,.79,2.4,0,.92-.22,1.74-.67,2.46h0c-.47,.75-1.22,1.13-2.25,1.13Zm-.04-6.42c-.75,0-1.34,.25-1.81,.76-.47,.51-.71,1.29-.71,2.31,0,.82,.21,1.51,.61,2.06,.4,.54,1.03,.8,1.95,.8,.86,0,1.46-.29,1.83-.9h0c.39-.63,.59-1.37,.59-2.2s-.22-1.56-.67-2.08c-.44-.51-1.03-.76-1.8-.76Z"/></g></g><g><path class="cls-2" d="M64.72,21.51c-7.17,0-12.99,6.46-12.99,14.43s5.82,14.42,12.99,14.42,12.99-6.46,12.99-14.42-5.82-14.43-12.99-14.43Zm-.13,26.74c-3.94,0-7.14-5.35-7.14-11.95,0-7.17,2.69-11.95,7.14-11.95,4.73,0,7.15,4.86,7.15,11.95,0,6.6-2.67,11.95-7.15,11.95Z"/><path class="cls-2" d="M13.53,21.88c-2.85,0-5.47,1.15-7.53,3.06v-3.81l-5.41,1.78V61.16H6v-14.24c2.06,1.92,4.68,3.06,7.53,3.06,6.68,0,12.09-6.3,12.09-14.05s-5.41-14.06-12.09-14.06Zm-1.11,26c-2.64,0-4.98-1.94-6.42-4.93v-14.04c1.44-2.99,3.78-4.93,6.42-4.93,4.38,0,7.93,5.35,7.93,11.95s-2.97,11.95-7.93,11.95Z"/><path class="cls-2" d="M188.67,28.91v20.63h-5.41V31.43c0-.78-.12-1.56-.37-2.3-.56-1.63-1.89-4.03-4.85-4.03-4.46,0-6.75,4.87-6.75,6.73v17.71h-5.41V23l5.41-1.23v4.31s3.26-4.31,9.43-4.31c.95,0,1.8,.12,2.54,.33,4.14,1.15,5.41,5.03,5.41,6.82Z"/><path class="cls-2" d="M98.63,48.4s-3.13,2.23-8.07,2.23c-1.51,0-2.61-.63-3.41-1.48-1.64-1.75-2-4.42-2-4.42V25.04h-3.88v-1.84h3.88V10.9l5.41-1.78v14.08h7.3v1.84h-7.3v16.93c0,3.26,.53,5.31,2.8,5.31,1.45,0,4.25-1.03,4.25-1.03l1.02,2.15Z"/><path class="cls-2" d="M127.85,41.81c-.28,0-.53,.14-.69,.34,0,.01-.01,.03-.03,.05-.02,.05-.04,.08-.08,.13-.1,.19-.22,.38-.34,.56-.01,.02-.03,.04-.03,.05-.11,.16-.23,.32-.35,.48-.12,.17-.26,.34-.4,.49-.01,0-.02,.02-.03,.03-.12,.14-.25,.29-.39,.43-.03,.03-.05,.05-.08,.08-.14,.14-.29,.28-.44,.41-.16,.15-.33,.29-.5,.42-.14,.11-.27,.21-.42,.31-.25,.17-.49,.34-.75,.48-.16,.1-.32,.19-.49,.27-.17,.09-.34,.17-.52,.24-.06,.03-.12,.06-.19,.08-.15,.07-.31,.13-.47,.19-.05,.01-.1,.03-.14,.05-.14,.05-.28,.1-.43,.13-.05,.02-.12,.04-.17,.05-.19,.06-.39,.1-.6,.14-.21,.05-.44,.09-.66,.12-.15,.02-.3,.04-.45,.05-.13,.01-.26,.03-.39,.03-.19,0-.37,.01-.56,.01-.23,0-.46,0-.69-.03-1.12-.07-1.97-.07-3.17-.73-2.73-1.65-4.69-5.81-4.79-10.72h20.5l-.08-1.81v-.03c-.82-7.3-6.43-12.95-13.21-12.95-7.36,0-13.32,6.62-13.32,14.8s5.47,14.79,13.32,14.79c5.31,0,9.55-3.05,11.72-7.56,.03-.05,.07-.12,.09-.18,.04-.1,.06-.21,.06-.32,0-.47-.38-.86-.86-.86Zm-17.88-10.39c.88-4.77,3.39-7.74,7.06-7.74,2.98,0,5.08,1.79,6.27,4.78,.62,1.57,.99,3.48,1.1,5.63h-14.74c.05-.94,.16-1.83,.32-2.67Z"/><path class="cls-2" d="M48.9,25.06v7.69h-4.38s.43-6.82-2.98-6.82-5.64,5.76-5.64,7.26v16.64h-5.41V23.28l5.41-1.23v5.59s2.76-5.59,7.77-5.59,5.23,3.02,5.23,3.02Z"/><path class="cls-2" d="M157.14,23.34c-.09-.07-.18-.14-.27-.21-1.85-1.35-4.81-2.47-9.17-2.47s-7.72,.72-9.65,1.39c-1.44,.5-2.39,1.87-2.39,3.4v5.96h4.91c0-7.22,5.33-8.28,6.97-8.28s6.57,1.4,6.57,5.19-11.74,6.22-13.97,7.32c-2.97,1.47-5.14,4.38-5.14,6.78s1.19,7.93,8.93,7.93,10.18-4.72,10.18-4.72v4.72l5.26-1.2V26.78c0-.87-.68-2.22-2.22-3.43Zm-3.04,19.72c0,5.19-12.42,5.4-12.42-.89s12.42-7.83,12.42-7.83v8.72Z"/></g></g></g></svg>