<?xml version="1.0" encoding="UTF-8"?><svg id="Layer_2" xmlns="http://www.w3.org/2000/svg" viewBox="0 0 274.31 54.87"><defs><style>.cls-1{fill:#070808;}</style></defs><g id="Layer_1-2"><g><g><path class="cls-1" d="M150.36,13.8c-7.17,0-12.99,6.46-12.99,14.43s5.82,14.42,12.99,14.42,12.99-6.46,12.99-14.42-5.82-14.43-12.99-14.43Zm-.13,26.74c-3.94,0-7.14-5.35-7.14-11.95,0-7.17,2.69-11.95,7.14-11.95,4.73,0,7.15,4.86,7.15,11.95,0,6.6-2.67,11.95-7.15,11.95Z"/><path class="cls-1" d="M99.17,14.17c-2.85,0-5.47,1.15-7.53,3.06v-3.81l-5.41,1.78V53.46h5.41v-14.24c2.06,1.92,4.68,3.06,7.53,3.06,6.68,0,12.09-6.3,12.09-14.05s-5.41-14.06-12.09-14.06Zm-1.11,26c-2.64,0-4.98-1.94-6.42-4.93v-14.04c1.44-2.99,3.78-4.93,6.42-4.93,4.38,0,7.93,5.35,7.93,11.95s-2.97,11.95-7.93,11.95Z"/><path class="cls-1" d="M274.31,21.2v20.63h-5.41V23.72c0-.78-.12-1.56-.37-2.3-.56-1.63-1.89-4.03-4.85-4.03-4.46,0-6.75,4.87-6.75,6.73v17.71h-5.41V15.29l5.41-1.23v4.31s3.26-4.31,9.43-4.31c.95,0,1.8,.12,2.54,.33,4.14,1.15,5.41,5.03,5.41,6.82Z"/><path class="cls-1" d="M184.27,40.7s-3.13,2.23-8.07,2.23c-1.51,0-2.61-.63-3.41-1.48-1.64-1.75-2-4.42-2-4.42V17.33h-3.88v-1.84h3.88V3.19l5.41-1.78V15.49h7.3v1.84h-7.3v16.93c0,3.26,.53,5.31,2.8,5.31,1.45,0,4.25-1.03,4.25-1.03l1.02,2.15Z"/><path class="cls-1" d="M213.49,34.11c-.28,0-.53,.14-.69,.34,0,.01-.01,.03-.03,.05-.02,.05-.04,.08-.08,.13-.1,.19-.22,.38-.34,.56-.01,.02-.03,.04-.03,.05-.11,.16-.23,.32-.35,.48-.12,.17-.26,.34-.4,.49-.01,0-.02,.02-.03,.03-.12,.14-.25,.29-.39,.43-.03,.03-.05,.05-.08,.08-.14,.14-.29,.28-.44,.41-.16,.15-.33,.29-.5,.42-.14,.11-.27,.21-.42,.31-.25,.17-.49,.34-.75,.48-.16,.1-.32,.19-.49,.27-.17,.09-.34,.17-.52,.24-.06,.03-.12,.06-.19,.08-.15,.07-.31,.13-.47,.19-.05,.01-.1,.03-.14,.05-.14,.05-.28,.1-.43,.13-.05,.02-.12,.04-.17,.05-.19,.06-.39,.1-.6,.14-.21,.05-.44,.09-.66,.12-.15,.02-.3,.04-.45,.05-.13,.01-.26,.03-.39,.03-.19,0-.37,.01-.56,.01-.23,0-.46,0-.69-.03-1.12-.07-1.97-.07-3.17-.73-2.73-1.65-4.69-5.81-4.79-10.72h20.5l-.08-1.81v-.03c-.82-7.3-6.43-12.95-13.21-12.95-7.36,0-13.32,6.62-13.32,14.8s5.47,14.79,13.32,14.79c5.31,0,9.55-3.05,11.72-7.56,.03-.05,.07-.12,.09-.18,.04-.1,.06-.21,.06-.32,0-.47-.38-.86-.86-.86Zm-17.88-10.39c.88-4.77,3.39-7.74,7.06-7.74,2.98,0,5.08,1.79,6.27,4.78,.62,1.57,.99,3.48,1.1,5.63h-14.74c.05-.94,.16-1.83,.32-2.67Z"/><path class="cls-1" d="M134.55,17.36v7.69h-4.38s.43-6.82-2.98-6.82-5.64,5.76-5.64,7.26v16.64h-5.41V15.57l5.41-1.23v5.59s2.76-5.59,7.77-5.59,5.23,3.02,5.23,3.02Z"/><path class="cls-1" d="M242.79,15.64c-.09-.07-.18-.14-.27-.21-1.85-1.35-4.81-2.47-9.17-2.47s-7.72,.72-9.65,1.39c-1.44,.5-2.39,1.87-2.39,3.4v5.96h4.91c0-7.22,5.33-8.28,6.97-8.28s6.57,1.4,6.57,5.19-11.74,6.22-13.97,7.32c-2.97,1.47-5.14,4.38-5.14,6.78s1.19,7.93,8.93,7.93,10.18-4.72,10.18-4.72v4.72l5.26-1.2V19.07c0-.87-.68-2.22-2.22-3.43Zm-3.04,19.72c0,5.19-12.42,5.4-12.42-.89s12.42-7.83,12.42-7.83v8.72Z"/></g><g><path class="cls-1" d="M27.95,53.42c1.25,.62,2.57,1.05,3.97,1.26,.47,.07,.94,.11,1.41,.13-1.94-.16-3.74-.62-5.38-1.39Z"/><g><path class="cls-1" d="M23.33,49.85c.38,.47,.81,.9,1.26,1.32,.9,.83,1.91,1.51,2.99,2.06-1.56-.84-2.99-1.98-4.25-3.38Z"/><path class="cls-1" d="M61.72,10.4c-3-2.74-7.05-3.88-11.48-3.6-2.64-3.72-6.13-6.05-10.12-6.64-5.16-.78-10.4,1.45-14.75,6.29-2.06,2.29-3.8,5.05-5.17,8.13-1.36,3.07-2.34,6.47-2.88,10.03-1.54,10.22,.99,19.72,6.01,25.25,1.26,1.4,2.69,2.54,4.25,3.38,.12,.07,.24,.13,.37,.19,1.63,.77,3.44,1.24,5.38,1.39,.04,0,.08,0,.11,0,.45,.04,.9,.05,1.37,.05,1.76,0,3.62-.24,5.55-.74,2.99-.76,5.97-2.08,8.81-3.88,2.84-1.8,5.54-4.07,7.97-6.73,4.85-5.33,8.05-11.61,9.01-17.7,1.01-6.42-.56-11.9-4.42-15.42ZM21.26,31.42c-.05-1.99,.08-4.06,.4-6.16,.95-6.28,3.42-11.92,6.98-15.88,3.32-3.7,7.17-5.44,10.83-4.89,2.15,.32,4.12,1.42,5.81,3.18-5.56,1.57-11.31,5.12-16.1,10.39-3.78,4.16-6.45,8.8-7.92,13.36Zm12.67,19.03h0c-2.54-.16-4.72-1.01-6.38-2.52-5.92-5.39-3.73-17.47,4.88-26.92,4.71-5.17,10.37-8.5,15.51-9.57,.16,.3,.31,.6,.45,.92,2.23,4.82,2.94,10.94,1.99,17.22-1.79,11.91-9,20.87-16.44,20.87Zm27.88-25.31c-.42,2.62-1.32,5.3-2.67,7.92-1.34,2.61-3.11,5.16-5.25,7.51-1.41,1.55-2.93,2.95-4.51,4.18,2.6-4,4.5-8.98,5.33-14.51,1.04-6.87,.3-13.63-2.08-19.12,2.37,.2,4.48,1.03,6.13,2.53,2.74,2.49,3.82,6.58,3.04,11.49Z"/></g><path class="cls-1" d="M6.8,39.66c-3.75,0-6.8-3.05-6.8-6.8s3.05-6.8,6.8-6.8,6.8,3.05,6.8,6.8-3.05,6.8-6.8,6.8Zm0-9.21c-1.33,0-2.41,1.08-2.41,2.41s1.08,2.41,2.41,2.41,2.41-1.08,2.41-2.41-1.08-2.41-2.41-2.41Z"/></g></g></g></svg>