<?xml version="1.0" encoding="UTF-8"?><svg id="Layer_2" xmlns="http://www.w3.org/2000/svg" viewBox="0 0 183.67 117.57"><defs><style>.cls-1{fill:#231f20;}.cls-2{fill:#070808;}</style></defs><g id="Layer_1-2"><g><g><path class="cls-2" d="M87.79,41.03c.96,.48,1.97,.81,3.05,.97,.36,.06,.72,.09,1.08,.1-1.49-.12-2.88-.48-4.13-1.07Z"/><g><path class="cls-2" d="M84.24,38.29c.3,.36,.62,.69,.97,1.01,.69,.63,1.46,1.16,2.3,1.58-1.2-.64-2.29-1.52-3.26-2.59Z"/><path class="cls-2" d="M113.73,7.99c-2.31-2.1-5.42-2.98-8.82-2.77-2.03-2.86-4.71-4.64-7.77-5.1-3.97-.6-7.99,1.12-11.33,4.83-1.58,1.76-2.92,3.88-3.97,6.24-1.05,2.36-1.8,4.97-2.21,7.7-1.18,7.85,.76,15.14,4.62,19.39,.97,1.07,2.07,1.95,3.26,2.59,.1,.05,.19,.1,.28,.15,1.25,.59,2.64,.95,4.13,1.07,.03,0,.06,0,.09,0,.34,.03,.69,.04,1.05,.04,1.35,0,2.78-.19,4.26-.57,2.29-.58,4.58-1.6,6.77-2.98,2.18-1.38,4.26-3.13,6.12-5.17,3.72-4.09,6.18-8.92,6.92-13.59,.78-4.93-.43-9.14-3.39-11.84Zm-31.07,16.14c-.04-1.53,.06-3.12,.31-4.73,.73-4.83,2.63-9.15,5.36-12.19,2.55-2.84,5.51-4.18,8.32-3.75,1.65,.25,3.17,1.09,4.46,2.44-4.27,1.2-8.68,3.93-12.37,7.98-2.9,3.19-4.95,6.76-6.08,10.26Zm9.73,14.62h0c-1.95-.12-3.63-.77-4.9-1.93-4.55-4.14-2.87-13.41,3.75-20.67,3.61-3.97,7.97-6.53,11.91-7.35,.12,.23,.24,.46,.35,.71,1.72,3.7,2.26,8.4,1.53,13.23-1.38,9.15-6.91,16.03-12.63,16.03Zm21.41-19.44c-.32,2.01-1.02,4.07-2.05,6.08-1.03,2.01-2.39,3.96-4.03,5.77-1.09,1.19-2.25,2.27-3.46,3.21,1.99-3.08,3.46-6.9,4.1-11.14,.8-5.27,.23-10.47-1.6-14.68,1.82,.16,3.44,.79,4.71,1.94,2.1,1.91,2.93,5.05,2.34,8.83Z"/></g><path class="cls-2" d="M71.55,30.46c-2.88,0-5.22-2.34-5.22-5.22s2.34-5.22,5.22-5.22,5.22,2.34,5.22,5.22-2.34,5.22-5.22,5.22Zm0-7.08c-1.02,0-1.85,.83-1.85,1.85s.83,1.85,1.85,1.85,1.85-.83,1.85-1.85-.83-1.85-1.85-1.85Z"/></g><g><g><path class="cls-2" d="M65.08,115.12c.02,.36,.1,.66,.25,.88,.28,.42,.76,.63,1.46,.63,.31,0,.6-.05,.85-.14,.5-.18,.75-.5,.75-.97,0-.35-.11-.6-.32-.74-.21-.15-.55-.27-1-.38l-.84-.2c-.55-.13-.94-.27-1.16-.42-.39-.27-.59-.67-.59-1.2,0-.57,.19-1.05,.58-1.41,.39-.37,.93-.55,1.64-.55,.65,0,1.21,.16,1.66,.48,.46,.32,.68,.84,.68,1.55h-.81c-.04-.34-.13-.6-.27-.79-.25-.33-.68-.5-1.29-.5-.49,0-.84,.11-1.06,.32-.21,.21-.32,.46-.32,.75,0,.31,.13,.54,.38,.69,.17,.09,.54,.21,1.13,.35l.87,.2c.42,.1,.74,.23,.97,.4,.39,.3,.59,.73,.59,1.3,0,.71-.25,1.21-.75,1.52-.5,.3-1.08,.46-1.75,.46-.77,0-1.38-.2-1.82-.61-.44-.4-.65-.95-.64-1.64h.81Z"/><path class="cls-1" d="M66.73,117.57c-.82,0-1.48-.22-1.96-.66-.48-.44-.72-1.04-.71-1.79v-.2h1.2v.19c.03,.33,.1,.59,.23,.79,.24,.37,.66,.54,1.29,.54,.29,0,.55-.04,.79-.13,.42-.15,.61-.4,.61-.78,0-.28-.08-.47-.23-.58-.19-.13-.5-.25-.93-.35l-.84-.2c-.58-.13-.98-.28-1.23-.45-.45-.31-.68-.76-.68-1.36,0-.63,.22-1.15,.64-1.56,.42-.4,1.02-.61,1.78-.61,.69,0,1.29,.18,1.78,.52,.51,.36,.77,.94,.77,1.71v.2h-1.19l-.02-.18c-.04-.31-.11-.54-.23-.69-.21-.28-.59-.42-1.13-.42-.43,0-.74,.09-.91,.26-.18,.18-.26,.38-.26,.61s.09,.41,.28,.51c.1,.06,.37,.16,1.07,.33l.87,.2c.44,.1,.79,.25,1.04,.44,.44,.34,.67,.83,.67,1.46,0,.78-.29,1.35-.85,1.69-.53,.32-1.15,.49-1.85,.49Zm-2.26-2.25c.03,.54,.22,.97,.58,1.29,.4,.37,.97,.56,1.68,.56,.62,0,1.18-.14,1.65-.43,.44-.27,.66-.71,.66-1.35,0-.51-.17-.88-.51-1.14-.2-.15-.5-.28-.89-.37l-.87-.2c-.61-.14-.99-.26-1.18-.37-.32-.18-.48-.48-.48-.86,0-.34,.13-.64,.38-.89,.25-.25,.65-.38,1.2-.38,.67,0,1.16,.19,1.45,.58,.13,.18,.23,.41,.28,.71h.44c-.04-.54-.23-.93-.59-1.19-.42-.3-.94-.45-1.55-.45-.65,0-1.16,.17-1.5,.5-.35,.33-.52,.75-.52,1.27,0,.46,.16,.8,.5,1.03,.21,.14,.57,.27,1.1,.39l.84,.2c.48,.11,.83,.25,1.07,.41,.27,.19,.4,.49,.4,.91,0,.38-.15,.89-.88,1.15-.28,.1-.59,.15-.92,.15-.77,0-1.31-.24-1.63-.73-.14-.21-.23-.48-.26-.79h-.43Z"/></g><g><path class="cls-2" d="M79.56,110.79v.76h-2.15v5.63h-.87v-5.63h-2.15v-.76h5.18Z"/><path class="cls-1" d="M77.6,117.38h-1.27v-5.63h-2.15v-1.16h5.58v1.16h-2.15v5.63Zm-.87-.4h.48v-5.63h2.15v-.36h-4.78v.36h2.15v5.63Z"/></g><g><path class="cls-2" d="M85.74,110.79v3.95c0,.46,.09,.85,.26,1.16,.26,.46,.7,.7,1.32,.7,.74,0,1.24-.25,1.51-.75,.14-.27,.22-.64,.22-1.1v-3.95h.87v3.59c0,.79-.11,1.39-.32,1.81-.39,.77-1.13,1.16-2.21,1.16s-1.82-.39-2.2-1.16c-.21-.42-.32-1.03-.32-1.81v-3.59h.87Z"/><path class="cls-1" d="M87.39,117.55c-1.16,0-1.96-.43-2.38-1.27-.23-.46-.34-1.08-.34-1.9v-3.79h1.27v4.15c0,.43,.08,.78,.24,1.06,.23,.4,.6,.6,1.14,.6,.67,0,1.1-.21,1.33-.65,.13-.24,.19-.58,.19-1.01v-4.15h1.27v3.79c0,.81-.11,1.45-.34,1.9-.42,.84-1.23,1.27-2.39,1.27Zm-2.32-6.56v3.39c0,.75,.1,1.33,.3,1.72,.35,.7,1.02,1.05,2.03,1.05s1.67-.34,2.03-1.05c.2-.39,.3-.97,.3-1.72v-3.39h-.48v3.75c0,.49-.08,.89-.24,1.19-.3,.57-.87,.86-1.68,.86-.69,0-1.19-.27-1.49-.8-.19-.33-.29-.76-.29-1.25v-3.75h-.48Z"/></g><g><path class="cls-2" d="M95.73,110.79h2.55c.87,0,1.54,.31,2.02,.94,.43,.56,.64,1.28,.64,2.16,0,.68-.13,1.29-.38,1.84-.44,.97-1.21,1.45-2.29,1.45h-2.54v-6.39Zm2.38,5.65c.29,0,.52-.03,.71-.09,.33-.11,.6-.33,.81-.65,.17-.26,.29-.59,.36-.99,.04-.24,.06-.46,.06-.67,0-.79-.15-1.41-.46-1.84-.31-.44-.8-.66-1.49-.66h-1.5v4.91h1.51Z"/><path class="cls-1" d="M98.28,117.38h-2.74v-6.79h2.75c.93,0,1.66,.34,2.18,1.01,.45,.6,.68,1.36,.68,2.28,0,.7-.13,1.35-.4,1.92-.48,1.04-1.31,1.57-2.47,1.57Zm-2.35-.4h2.35c1.01,0,1.69-.44,2.11-1.34,.24-.52,.36-1.11,.36-1.76,0-.83-.2-1.52-.6-2.04-.44-.58-1.05-.86-1.86-.86h-2.35v5.99Zm2.18-.34h-1.71v-5.3h1.7c.75,0,1.3,.25,1.65,.74,.33,.47,.5,1.13,.5,1.96,0,.22-.02,.45-.07,.7-.08,.43-.21,.79-.39,1.07-.23,.36-.54,.6-.91,.73-.21,.07-.46,.1-.77,.1Zm-1.31-.4h1.31c.26,0,.48-.03,.64-.08,.29-.1,.52-.29,.7-.57,.15-.23,.26-.54,.33-.92,.04-.23,.06-.44,.06-.63,0-.75-.14-1.33-.43-1.73-.27-.38-.7-.57-1.32-.57h-1.3v4.51Z"/></g><g><path class="cls-2" d="M106.77,110.79h.87v6.39h-.87v-6.39Z"/><path class="cls-1" d="M107.85,117.38h-1.27v-6.79h1.27v6.79Zm-.87-.4h.48v-5.99h-.48v5.99Z"/></g><g><path class="cls-2" d="M118.77,111.71c.42,.57,.63,1.29,.63,2.17,0,.95-.24,1.75-.73,2.38-.57,.74-1.38,1.11-2.43,1.11-.98,0-1.76-.32-2.32-.97-.5-.63-.75-1.42-.75-2.37,0-.86,.21-1.6,.64-2.22,.55-.79,1.37-1.18,2.44-1.18s1.96,.36,2.51,1.09Zm-.76,4.07c.34-.55,.51-1.18,.51-1.89,0-.75-.2-1.36-.59-1.81-.39-.46-.93-.69-1.61-.69s-1.2,.23-1.62,.68-.63,1.12-.63,2.01c0,.71,.18,1.31,.54,1.79,.36,.49,.94,.73,1.74,.73s1.31-.27,1.65-.82Z"/><path class="cls-1" d="M116.25,117.57c-1.04,0-1.87-.35-2.47-1.04-.53-.66-.8-1.51-.8-2.51,0-.9,.23-1.69,.68-2.33,.59-.84,1.47-1.27,2.61-1.27s2.09,.39,2.66,1.17c.45,.6,.67,1.37,.67,2.29,0,.99-.26,1.84-.77,2.5-.61,.79-1.48,1.19-2.59,1.19Zm.02-6.75c-1.02,0-1.76,.36-2.28,1.1-.4,.58-.61,1.29-.61,2.1,0,.91,.24,1.66,.71,2.25,.52,.6,1.23,.9,2.16,.9,1,0,1.74-.34,2.27-1.04,.45-.59,.69-1.35,.69-2.26,0-.83-.2-1.52-.6-2.05h0c-.51-.68-1.27-1.01-2.35-1.01Zm.09,5.98c-.87,0-1.51-.27-1.9-.81-.38-.52-.58-1.16-.58-1.91,0-.93,.23-1.65,.68-2.14,.45-.49,1.05-.75,1.76-.75s1.33,.25,1.76,.76c.42,.49,.64,1.15,.64,1.94,0,.75-.18,1.42-.54,1.99h0c-.38,.61-.99,.91-1.82,.91Zm-.03-5.21c-.61,0-1.09,.2-1.47,.62-.38,.41-.57,1.04-.57,1.87,0,.66,.17,1.22,.5,1.67,.32,.44,.84,.65,1.58,.65,.7,0,1.18-.24,1.49-.73h0c.32-.51,.48-1.11,.48-1.78s-.18-1.27-.54-1.69c-.36-.42-.83-.62-1.46-.62Z"/></g></g><g><path class="cls-2" d="M62.63,66.29c-7,0-12.69,6.31-12.69,14.09s5.69,14.08,12.69,14.08,12.68-6.31,12.68-14.08-5.68-14.09-12.68-14.09Zm-.13,26.12c-3.85,0-6.97-5.22-6.97-11.67,0-7,2.63-11.67,6.97-11.67,4.62,0,6.98,4.74,6.98,11.67,0,6.44-2.61,11.67-6.98,11.67Z"/><path class="cls-2" d="M12.64,66.66c-2.78,0-5.34,1.12-7.35,2.99v-3.72l-5.28,1.74v37.35H5.28v-13.9c2.02,1.87,4.57,2.99,7.35,2.99,6.52,0,11.81-6.15,11.81-13.72s-5.28-13.73-11.81-13.73Zm-1.08,25.39c-2.58,0-4.86-1.9-6.27-4.81v-13.71c1.41-2.92,3.69-4.81,6.27-4.81,4.28,0,7.75,5.22,7.75,11.67s-2.9,11.67-7.75,11.67Z"/><path class="cls-2" d="M183.67,73.52v20.15h-5.28v-17.69c0-.76-.11-1.52-.36-2.24-.55-1.59-1.85-3.94-4.74-3.94-4.36,0-6.59,4.75-6.59,6.58v17.3h-5.28v-25.92l5.28-1.21v4.21s3.18-4.21,9.21-4.21c.92,0,1.75,.11,2.48,.32,4.04,1.12,5.28,4.91,5.28,6.66Z"/><path class="cls-2" d="M95.74,92.56s-3.05,2.18-7.88,2.18c-1.47,0-2.55-.62-3.33-1.45-1.6-1.71-1.96-4.32-1.96-4.32v-19.23h-3.79v-1.8h3.79v-12.01l5.28-1.74v13.75h7.13v1.8h-7.13v16.53c0,3.19,.52,5.19,2.73,5.19,1.41,0,4.15-1,4.15-1l1,2.1Z"/><path class="cls-2" d="M124.28,86.12c-.27,0-.52,.13-.68,.33,0,.01-.01,.03-.03,.05-.02,.05-.04,.08-.07,.13-.1,.19-.21,.37-.33,.54-.01,.02-.03,.04-.03,.05-.11,.16-.22,.31-.34,.47-.12,.17-.25,.33-.39,.48-.01,0-.02,.02-.03,.03-.12,.14-.25,.28-.38,.42-.03,.03-.05,.05-.07,.07-.14,.14-.28,.27-.43,.4-.16,.15-.32,.28-.49,.41-.13,.11-.27,.21-.41,.3-.24,.17-.48,.33-.74,.47-.15,.09-.31,.18-.48,.26-.17,.09-.33,.17-.51,.23-.06,.03-.12,.06-.18,.08-.15,.07-.3,.13-.46,.18-.05,.01-.09,.03-.14,.05-.13,.05-.27,.09-.42,.13-.05,.02-.11,.04-.17,.05-.19,.06-.38,.1-.58,.14-.21,.05-.43,.09-.64,.11-.15,.02-.29,.04-.44,.05-.13,.01-.25,.03-.38,.03-.18,0-.36,.01-.54,.01-.23,0-.45,0-.67-.03-1.09-.07-1.93-.07-3.09-.72-2.67-1.61-4.58-5.67-4.67-10.47h20.02l-.07-1.77v-.03c-.8-7.13-6.27-12.65-12.9-12.65-7.19,0-13.01,6.47-13.01,14.45s5.34,14.44,13.01,14.44c5.18,0,9.32-2.98,11.44-7.39,.03-.05,.07-.11,.09-.17,.04-.09,.06-.2,.06-.31,0-.46-.38-.84-.84-.84Zm-17.46-10.15c.86-4.66,3.31-7.56,6.89-7.56,2.91,0,4.96,1.75,6.12,4.67,.61,1.53,.97,3.4,1.08,5.5h-14.4c.05-.92,.15-1.79,.31-2.61Z"/><path class="cls-2" d="M47.18,69.76v7.51h-4.27s.42-6.66-2.91-6.66-5.5,5.63-5.5,7.09v16.25h-5.28v-25.92l5.28-1.21v5.46s2.69-5.46,7.59-5.46,5.1,2.95,5.1,2.95Z"/><path class="cls-2" d="M152.88,68.09c-.08-.07-.18-.14-.27-.2-1.81-1.32-4.7-2.41-8.95-2.41s-7.54,.71-9.42,1.36c-1.41,.48-2.34,1.83-2.34,3.32v5.82h4.79c0-7.05,5.2-8.09,6.81-8.09s6.41,1.37,6.41,5.07-11.47,6.07-13.64,7.14c-2.9,1.43-5.02,4.27-5.02,6.63s1.16,7.75,8.72,7.75,9.94-4.61,9.94-4.61v4.61l5.14-1.17v-21.86c0-.85-.66-2.17-2.17-3.35Zm-2.97,19.26c0,5.07-12.13,5.27-12.13-.87s12.13-7.65,12.13-7.65v8.51Z"/></g></g></g></svg>